<svg width="57" height="42" viewBox="0 0 57 42" fill="none" xmlns="http://www.w3.org/2000/svg">
<path id="&#226;&#128;&#156;" d="M0 27.1047C0 22.7907 1.493 18.2122 4.47901 13.3692C7.50592 8.48547 12.9462 4.02907 20.7998 0L22.2723 2.74709C18.3455 5.51454 15.4413 7.8343 13.5597 9.7064C10.2465 13.0843 8.58988 16.3198 8.58988 19.4128C8.58988 20.4709 8.89666 21.1628 9.51023 21.4884C10.1238 21.8547 10.6555 22.0378 11.1055 22.0378C12.6598 21.8343 13.6825 21.7326 14.1733 21.7326C16.7912 21.7326 18.9386 22.689 20.6157 24.6017C22.2928 26.4738 23.1313 28.7529 23.1313 31.439C23.1313 34.4506 22.211 36.9738 20.3703 39.0087C18.5296 41.0029 15.9935 42 12.7621 42C8.95802 42 5.86975 40.657 3.49731 37.9709C1.16577 35.2442 0 31.6221 0 27.1047ZM33.8687 27.1047C33.8687 22.5465 35.4639 17.8459 38.6545 13.0029C41.845 8.15988 47.183 3.82558 54.6685 0L56.141 2.74709C52.4596 5.31105 49.6372 7.56977 47.6738 9.52326C44.197 12.9826 42.4586 16.1977 42.4586 19.1686C42.4586 20.0233 42.6835 20.7151 43.1335 21.2442C43.5834 21.7733 44.197 22.0378 44.9742 22.0378C46.5285 21.8343 47.5511 21.7326 48.042 21.7326C50.6189 21.7326 52.746 22.6686 54.423 24.5407C56.141 26.4128 57 28.7122 57 31.439C57 34.6134 56.0592 37.1773 54.1776 39.1308C52.296 41.0436 49.7395 42 46.5081 42C42.8267 42 39.7998 40.657 37.4273 37.9709C35.0549 35.2442 33.8687 31.6221 33.8687 27.1047Z" fill="#253446"/>
</svg>
